name C:\Users\antoi\Documents\MyRepositories\upper-imu-dc\Results\main_tracking\Case_99\kinematics.mot
datacolumns 43
datarows 13
range 0.90000000 1.14000000
endheader 
time	clav_prot	clav_elev	scapula_abduction	scapula_elevation	scapula_upward_rot	scapula_winging	plane_elv	shoulder_elv	axial_rot	TrapeziusScapula_M/activation	TrapeziusScapula_S/activation	TrapeziusScapula_I/activation	TrapeziusClavicle_S/activation	SerratusAnterior_I/activation	SerratusAnterior_M/activation	SerratusAnterior_S/activation	Rhomboideus_S/activation	Rhomboideus_I/activation	LevatorScapulae/activation	Coracobrachialis/activation	DeltoideusClavicle_A/activation	DeltoideusScapula_P/activation	DeltoideusScapula_M/activation	LatissimusDorsi_S/activation	LatissimusDorsi_M/activation	LatissimusDorsi_I/activation	PectoralisMajorClavicle_S/activation	PectoralisMajorThorax_I/activation	PectoralisMajorThorax_M/activation	TeresMajor/activation	Infraspinatus_I/activation	Infraspinatus_S/activation	PectoralisMinor/activation	TeresMinor/activation	Subscapularis_S/activation	Subscapularis_M/activation	Subscapularis_I/activation	Supraspinatus_P/activation	Supraspinatus_A/activation	TRIlong/activation	BIC_long/activation	BIC_brevis/activation	
          0.90000000	        -37.43631786	          3.09290556	        -35.97774327	         -1.02984339	         18.71048757	         -1.20862290	         -8.14107701	          0.69403227	         63.45121978	          0.01000022	          0.02228334	          0.01000000	          0.03043471	          0.03374149	          0.06005966	          0.01000040	          0.01000064	          0.01032797	          0.02382779	          0.01000080	          0.01326976	          0.01000146	          0.03510156	          0.01000012	          0.01000011	          0.01000022	          0.01198937	          0.01000032	          0.02634680	          0.01000080	          0.01810413	          0.01138232	          0.01000026	          0.01000379	          0.01000032	          0.01000043	          0.01000055	          0.01000020	          0.01000000	          0.01017110	          0.01260238	          0.01000164	
          0.92000000	        -37.36722089	          2.68201201	        -35.82784021	         -1.26181337	         18.43414349	         -0.98617516	         -8.05256135	          1.27949741	         63.00112164	          0.01000015	          0.02492787	          0.01000001	          0.03298511	          0.04244939	          0.06621230	          0.01000018	          0.01000043	          0.01000031	          0.02161617	          0.01000016	          0.01692631	          0.01000028	          0.04518554	          0.01000003	          0.01000000	          0.01000011	          0.01248956	          0.01000000	          0.02707970	          0.01000008	          0.02011412	          0.01351763	          0.01000000	          0.01000168	          0.01000018	          0.01000026	          0.01000016	          0.01000060	          0.01003734	          0.01000007	          0.01783885	          0.01000007	
          0.94000000	        -37.26740896	          2.30599652	        -35.66489638	         -1.47661112	         18.22028164	         -0.79253738	         -7.95634087	          1.82585670	         62.54729726	          0.01000022	          0.02613080	          0.01000006	          0.03246054	          0.04524327	          0.06596204	          0.01000020	          0.01000043	          0.01000047	          0.01941065	          0.01000027	          0.01959315	          0.01000021	          0.04481563	          0.01000010	          0.01000004	          0.01000016	          0.01432530	          0.01000000	          0.02848574	          0.01000008	          0.02152223	          0.01432997	          0.01000000	          0.01000192	          0.01000011	          0.01000020	          0.01000007	          0.01000057	          0.01136849	          0.01000011	          0.02150136	          0.01000019	
          0.96000000	        -37.16992893	          1.98883769	        -35.47905220	         -1.66871209	         18.08743571	         -0.63458704	         -7.84090351	          2.31858735	         62.09782141	          0.01000024	          0.02728417	          0.01000007	          0.03176331	          0.04761437	          0.06554393	          0.01000019	          0.01000041	          0.01000042	          0.01728893	          0.01000027	          0.02212861	          0.01000018	          0.04324213	          0.01000011	          0.01000004	          0.01000016	          0.01638057	          0.01000000	          0.03008713	          0.01000006	          0.02314860	          0.01504893	          0.01000000	          0.01000259	          0.01000009	          0.01000017	          0.01000005	          0.01000063	          0.01325509	          0.01000009	          0.02464613	          0.01000020	
          0.98000000	        -37.07192587	          1.73029401	        -35.26152538	         -1.83936571	         18.04137528	         -0.51349018	         -7.69873645	          2.74819187	         61.65646955	          0.01000025	          0.02836131	          0.01000007	          0.03099399	          0.04959716	          0.06513482	          0.01000019	          0.01000041	          0.01000040	          0.01536950	          0.01000029	          0.02441315	          0.01000016	          0.04140766	          0.01000011	          0.01000005	          0.01000017	          0.01837129	          0.01000000	          0.03159985	          0.01000006	          0.02453183	          0.01566958	          0.01000000	          0.01000277	          0.01000009	          0.01000017	          0.01000005	          0.01000089	          0.01527868	          0.01000008	          0.02733807	          0.01000024	
          1.00000000	        -36.97163524	          1.52675566	        -35.00628652	         -1.99142814	         18.08410403	         -0.42883591	         -7.52268585	          3.10751420	         61.22741896	          0.01000026	          0.02928969	          0.01000007	          0.03017828	          0.05104329	          0.06476903	          0.01000020	          0.01000041	          0.01000038	          0.01379926	          0.01000031	          0.02629643	          0.01000014	          0.03954269	          0.01000012	          0.01000005	          0.01000017	          0.02009266	          0.01000000	          0.03281925	          0.01000005	          0.02563029	          0.01616372	          0.01000000	          0.01000180	          0.01000009	          0.01000016	          0.01000005	          0.01000093	          0.01712182	          0.01000007	          0.02948432	          0.01000028	
          1.02000000	        -36.86879984	          1.37159495	        -34.71081232	         -2.12915352	         18.21393047	         -0.37885182	         -7.30774662	          3.39291607	         60.81377616	          0.01000026	          0.03005848	          0.01000008	          0.02938019	          0.05197126	          0.06449861	          0.01000021	          0.01000041	          0.01000036	          0.01266668	          0.01000033	          0.02767952	          0.01000014	          0.03802486	          0.01000012	          0.01000005	          0.01000018	          0.02138989	          0.01000000	          0.03360604	          0.01000005	          0.02633895	          0.01651914	          0.01000000	          0.01000172	          0.01000009	          0.01000016	          0.01000005	          0.01000301	          0.01853801	          0.01000007	          0.03105297	          0.01000032	
          1.04000000	        -36.76458157	          1.25662372	        -34.37604450	         -2.25729969	         18.42622212	         -0.36092789	         -7.05096820	          3.60427869	         60.41794635	          0.01000027	          0.03067559	          0.01000009	          0.02864036	          0.05239709	          0.06433074	          0.01000021	          0.01000041	          0.01000035	          0.01196807	          0.01000035	          0.02855445	          0.01000014	          0.03702011	          0.01000012	          0.01000005	          0.01000018	          0.02223990	          0.01000000	          0.03390582	          0.01000005	          0.02664663	          0.01673013	          0.01000000	          0.01000157	          0.01000008	          0.01000015	          0.01000004	          0.01000080	          0.01944751	          0.01000008	          0.03198311	          0.01000035	
          1.06000000	        -36.66094458	          1.17374428	        -34.00551639	         -2.38008328	         18.71428911	         -0.37205654	         -6.75081458	          3.74443974	         60.04220253	          0.01000028	          0.03116538	          0.01000009	          0.02796767	          0.05240027	          0.06422896	          0.01000021	          0.01000041	          0.01000032	          0.01169771	          0.01000036	          0.02895220	          0.01000015	          0.03659795	          0.01000012	          0.01000005	          0.01000018	          0.02265401	          0.01000000	          0.03373606	          0.01000005	          0.02655657	          0.01680261	          0.01000000	          0.01000151	          0.01000007	          0.01000014	          0.01000002	          0.01000061	          0.01983111	          0.01000008	          0.03233359	          0.01000039	
          1.08000000	        -36.55994421	          1.11625634	        -33.60436380	         -2.50032378	         19.07000742	         -0.40910847	         -6.40586276	          3.81853253	         59.68969391	          0.01000028	          0.03155166	          0.01000010	          0.02735301	          0.05202022	          0.06418414	          0.01000021	          0.01000042	          0.01000034	          0.01183607	          0.01000036	          0.02892398	          0.01000016	          0.03674375	          0.01000011	          0.01000005	          0.01000018	          0.02266386	          0.01000000	          0.03313456	          0.01000005	          0.02610418	          0.01674879	          0.01000000	          0.01000189	          0.01000007	          0.01000014	          0.01000003	          0.01000044	          0.01971767	          0.01000009	          0.03219158	          0.01000037	
          1.10000000	        -36.46319245	          1.07954692	        -33.17842093	         -2.61904901	         19.48437599	         -0.46901411	         -6.01458557	          3.83323964	         59.36492196	          0.01000028	          0.03186325	          0.01000010	          0.02674945	          0.05135347	          0.06412611	          0.01000022	          0.01000043	          0.01000035	          0.01224640	          0.01000035	          0.02862317	          0.01000018	          0.03727874	          0.01000011	          0.01000005	          0.01000017	          0.02240673	          0.01000000	          0.03223914	          0.01000006	          0.02540186	          0.01660900	          0.01000000	          0.01000239	          0.01000007	          0.01000013	          0.01000003	          0.01000091	          0.01924931	          0.01000010	          0.03172032	          0.01000036	
          1.12000000	        -36.37187532	          1.06078578	        -32.73370942	         -2.73591934	         19.94822725	         -0.54893376	         -5.57581152	          3.79577104	         59.07300193	          0.01000029	          0.03210308	          0.01000009	          0.02613742	          0.05045030	          0.06399147	          0.01000022	          0.01000044	          0.01000034	          0.01281046	          0.01000035	          0.02816432	          0.01000019	          0.03798031	          0.01000011	          0.01000005	          0.01000017	          0.02198841	          0.01000000	          0.03114190	          0.01000006	          0.02459400	          0.01641150	          0.01000000	          0.01000219	          0.01000007	          0.01000013	          0.01000003	          0.01000164	          0.01857783	          0.01000012	          0.03106566	          0.01000034	
          1.14000000	        -36.28716576	          1.05808253	        -32.27639632	         -2.85005414	         20.45285294	         -0.64638952	         -5.08983392	          3.71287532	         58.81805093	          0.01000029	          0.03227032	          0.01000008	          0.02549596	          0.04933890	          0.06370639	          0.01000022	          0.01000046	          0.01000038	          0.01342077	          0.01000034	          0.02762555	          0.01000021	          0.03862200	          0.01000010	          0.01000004	          0.01000017	          0.02149191	          0.01000000	          0.02992113	          0.01000007	          0.02380862	          0.01617734	          0.01000000	          0.01000201	          0.01000006	          0.01000013	          0.01000003	          0.01000139	          0.01781892	          0.01000013	          0.03032256	          0.01000033	
